<svg version="1" xmlns="http://www.w3.org/2000/svg" width="666.667" height="666.667" viewBox="0 0 500.000000 500.000000"><path d="M231.5.6c-1.6.2-7.3.9-12.5 1.5C165.4 8.2 113.6 33.5 74 73c-21.3 21.2-35.4 40.8-48.5 67.5C8.1 175.9.7 208.1.6 249c-.1 31.4 3.1 51.9 12.5 80.5 24.6 74.2 84 133.1 159.4 158 26.1 8.7 47.7 12 77.5 12 30.7-.1 51.6-3.4 79.5-12.6 76.1-25.2 136.4-87.5 159.9-165.2 7.3-24.2 10.1-43.7 10.1-71.7s-2.8-47.5-10.1-71.7c-20.2-67-67.1-122.1-129.9-152.9-23.7-11.5-47.8-19-74.7-23C275 1 237.9-.3 231.5.6zm18.1 88c-.4 1.5-23 73.7-50.2 160.6-27.1 86.9-49.4 158.1-49.4 158.4 0 .2-9.4.4-21 .4-13.9 0-21-.4-21-1 0-.9 92.2-296.8 98.1-314.8l2.1-6.2h42l-.6 2.6zM392 91.7c-1.1 3.2-21.8 69.2-46 146.8-24.3 77.5-46.2 147.4-48.6 155.2l-4.5 14.3h-21c-11.5 0-20.9-.3-20.9-.6s22.3-72 49.5-159.3c27.3-87.2 49.8-159.4 50.1-160.4.5-1.5 2.4-1.7 21.9-1.7h21.4l-1.9 5.7z"/></svg>