<svg version="1" xmlns="http://www.w3.org/2000/svg" width="508" height="508" viewBox="0 0 381.000000 381.000000"><path d="M111 14.2c0 .7-1.6 6.2-3.6 12.3-2 6-3.8 11.7-4 12.5-.2.8-2.6 8.7-5.5 17.5-4.9 15.5-9 28.4-12.9 41-1 3.3-3.2 10.5-5 16-1.7 5.5-4.2 13.4-5.5 17.5-2.7 8.8-28.2 90-36 114.5-2.9 9.3-7.6 24.2-10.4 33-2.7 8.8-8 25.4-11.7 37-3.6 11.5-7.1 22.6-7.6 24.5-.5 1.9-1.8 6-2.8 9-1 3-2.5 7.7-3.3 10.5-.8 2.7-1.8 5.8-2.2 6.7-.7 1.7 1.2 1.8 31.7 1.8h32.5l8.3-26.3c4.5-14.4 9.3-29.4 10.5-33.2 1.3-3.9 4.6-14.4 7.5-23.5 2.9-9.1 7-22 9.1-28.8 2.1-6.7 5.7-17.7 7.8-24.5 2.1-6.7 6.4-20.3 9.5-30.2 3.2-9.9 6.3-19.8 7.1-22 .7-2.2 2.7-8.3 4.3-13.5 1.7-5.2 5.8-18.3 9.2-29 3.4-10.7 8.6-27.4 11.7-37 3-9.6 7.2-22.9 9.3-29.5 6-18.6 16.8-52.7 17.5-55.3l.6-2.2h-33c-25.2 0-33.1.3-33.1 1.2zM314.5 15.2c-.7 2.3-8.4 27.1-15 47.8-1.8 5.8-4.2 13.4-5.3 17-1.1 3.6-4.5 14.4-7.5 24-3.1 9.6-7.6 24.2-10.2 32.5-2.6 8.2-6.2 19.7-8 25.5-1.9 5.8-5.9 18.6-9 28.5-3.1 9.9-6.4 20.2-7.3 23-.9 2.7-1.7 5.4-1.8 6-.2.9-11.8 37.8-24.5 78-2.8 8.8-6.8 21.4-8.9 28-2 6.6-5.8 18.6-8.4 26.6-2.5 8-4.6 14.8-4.6 15.2 0 .4 14.6.7 32.5.7 24.1 0 32.5-.3 32.5-1.2 0-.6 3-10.4 6.6-21.7 3.6-11.3 8.1-25.3 9.9-31.1 10.2-32.2 18-56.7 23.4-74 3.4-10.7 6.8-21.3 7.6-23.5.7-2.2 3.2-10.1 5.5-17.5s6.1-19.6 8.5-27c6-18.7 16.1-50.5 31-97.5C368.4 52.5 375 32 376 29s2.5-7.9 3.3-10.8l1.6-5.2h-65.8l-.6 2.2z"/></svg>